<mxfile host="app.diagrams.net" agent="Mozilla/5.0 (Windows NT 10.0; Win64; x64) AppleWebKit/537.36 (KHTML, like Gecko) Chrome/134.0.0.0 Safari/537.36" version="26.2.9">
  <diagram name="Page-1" id="E1clJ-vo8N5P6Af11tzl">
    <mxGraphModel dx="5326" dy="4133" grid="1" gridSize="10" guides="1" tooltips="1" connect="1" arrows="1" fold="1" page="1" pageScale="1" pageWidth="4681" pageHeight="3300" math="0" shadow="0">
      <root>
        <mxCell id="0" />
        <mxCell id="1" parent="0" />
        <mxCell id="gpong3w6HoHgrcKHU_dl-1" value="Drone" style="swimlane;fontStyle=1;align=center;verticalAlign=top;childLayout=stackLayout;horizontal=1;startSize=26;horizontalStack=0;resizeParent=1;resizeParentMax=0;resizeLast=0;collapsible=1;marginBottom=0;whiteSpace=wrap;html=1;" parent="1" vertex="1">
          <mxGeometry x="-2190" y="-1160" width="330" height="1230" as="geometry" />
        </mxCell>
        <mxCell id="gpong3w6HoHgrcKHU_dl-2" value="&lt;div&gt;+&amp;nbsp;&lt;u&gt;BASE_X: float = 0.0&lt;/u&gt;&lt;/div&gt;&lt;div&gt;+&amp;nbsp;&lt;span style=&quot;background-color: transparent;&quot;&gt;&lt;u&gt;BASE_Y: float = 0.0&lt;/u&gt;&lt;/span&gt;&lt;/div&gt;&lt;div&gt;&lt;span style=&quot;background-color: transparent;&quot;&gt;+&lt;u&gt; ARRIVAL_DISTANCE_THRESHOLD: float = 10.0&lt;/u&gt;&lt;/span&gt;&lt;/div&gt;&lt;div&gt;&lt;span style=&quot;background-color: transparent;&quot;&gt;-&lt;u&gt; TOP_SPEED: float = 20.0&lt;/u&gt;&lt;/span&gt;&lt;/div&gt;&lt;div&gt;- &lt;u&gt;ACCEL_RATE: float = 3.0f&lt;/u&gt;&lt;/div&gt;&lt;div&gt;-&lt;u&gt; DECEL_RATE: float = -5.0&lt;/u&gt;&lt;/div&gt;&lt;div&gt;- &lt;u&gt;CRUISE_ALTITUDE: float = 50.0&lt;/u&gt;&lt;/div&gt;&lt;div&gt;-&lt;u&gt; VERTICAL_SPEED: float = 5.0&lt;/u&gt;&lt;/div&gt;&lt;div&gt;- &lt;u&gt;BASE_POSITION: Position = &amp;lt;val&amp;gt;&lt;/u&gt;&lt;/div&gt;- &lt;u&gt;TOP_SPEED: float = 20.0&lt;/u&gt;&lt;div&gt;- &lt;u&gt;TAKEOFF_ACCEL_RATE&lt;/u&gt;&lt;u style=&quot;background-color: transparent; color: light-dark(rgb(0, 0, 0), rgb(255, 255, 255));&quot;&gt;: float&lt;/u&gt;&lt;u style=&quot;background-color: transparent; color: light-dark(rgb(0, 0, 0), rgb(255, 255, 255));&quot;&gt;&amp;nbsp;= 3.0&lt;/u&gt;&lt;/div&gt;&lt;div&gt;- &lt;u&gt;LAND_DECEL_RATE&lt;/u&gt;&lt;u style=&quot;background-color: transparent; color: light-dark(rgb(0, 0, 0), rgb(255, 255, 255));&quot;&gt;: float&lt;/u&gt;&lt;u style=&quot;background-color: transparent; color: light-dark(rgb(0, 0, 0), rgb(255, 255, 255));&quot;&gt;&amp;nbsp;= 5.0&lt;/u&gt;&lt;/div&gt;&lt;div&gt;- &lt;u&gt;ARRIVAL_DISTANCE_THRESHOLD: float = 25.0&lt;/u&gt;&lt;/div&gt;&lt;div&gt;&lt;u&gt;- SLEEP: int=50&lt;/u&gt;&lt;/div&gt;&lt;div&gt;- SCHEDULER_PORT: int=7001&amp;nbsp;&lt;/div&gt;&lt;div&gt;- id: int&lt;/div&gt;&lt;div&gt;- agentTank: AgentTank&lt;/div&gt;&lt;div&gt;- position: Position&lt;/div&gt;&lt;div&gt;- states:&amp;nbsp;&lt;span style=&quot;background-color: transparent; color: light-dark(rgb(0, 0, 0), rgb(255, 255, 255));&quot;&gt;Map&amp;lt;DroneStateID, DroneState&amp;gt;&lt;/span&gt;&lt;/div&gt;&lt;div&gt;&lt;span style=&quot;background-color: transparent;&quot;&gt;- currState: DroneState&lt;/span&gt;&lt;/div&gt;&lt;div&gt;&lt;span style=&quot;background-color: transparent;&quot;&gt;&lt;div&gt;- currSpeed: float&lt;/div&gt;&lt;div&gt;- currAltitude: float&lt;/div&gt;&lt;div&gt;- decelDistance: float&lt;/div&gt;&lt;div&gt;- fault: FaultID&lt;/div&gt;&lt;div&gt;- releasedAgentAmount: float&lt;/div&gt;&lt;/span&gt;&lt;/div&gt;&lt;div&gt;&lt;div&gt;- currStateID: DroneStateID&lt;/div&gt;&lt;div&gt;&lt;span style=&quot;background-color: transparent; color: light-dark(rgb(0, 0, 0), rgb(255, 255, 255));&quot;&gt;- currTask: DroneTask&lt;/span&gt;&lt;/div&gt;&lt;div&gt;- externalEventFlag: boolean&lt;/div&gt;&lt;div&gt;- destination: Position&lt;/div&gt;&lt;div&gt;- zoneToService: Zone&lt;/div&gt;&lt;/div&gt;&lt;div&gt;&lt;br&gt;&lt;/div&gt;" style="text;strokeColor=none;fillColor=none;align=left;verticalAlign=top;spacingLeft=4;spacingRight=4;overflow=hidden;rotatable=0;points=[[0,0.5],[1,0.5]];portConstraint=eastwest;whiteSpace=wrap;html=1;" parent="gpong3w6HoHgrcKHU_dl-1" vertex="1">
          <mxGeometry y="26" width="330" height="444" as="geometry" />
        </mxCell>
        <mxCell id="gpong3w6HoHgrcKHU_dl-3" value="" style="line;strokeWidth=1;fillColor=none;align=left;verticalAlign=middle;spacingTop=-1;spacingLeft=3;spacingRight=3;rotatable=0;labelPosition=right;points=[];portConstraint=eastwest;strokeColor=inherit;" parent="gpong3w6HoHgrcKHU_dl-1" vertex="1">
          <mxGeometry y="470" width="330" height="8" as="geometry" />
        </mxCell>
        <mxCell id="gpong3w6HoHgrcKHU_dl-4" value="+ Drone(id: int, droneManager: DroneManager)&lt;div&gt;+ run(): void&lt;br&gt;&lt;div&gt;- addState(stateID: DroneStateID, state: DroneState): void&lt;br&gt;&lt;div&gt;+ updateState(stateID: DroneStateID): void&lt;/div&gt;&lt;div&gt;+ getCurrStateID(): DroneStateID&lt;/div&gt;&lt;div&gt;+ setExternalEventFlag(): void&lt;/div&gt;&lt;div&gt;+ refillAgentTank(): void&lt;/div&gt;&lt;div&gt;+ getStatus(): DroneStatus&lt;/div&gt;&lt;div&gt;+ setStatus(status: DroneStatus): void&lt;/div&gt;&lt;div&gt;+ getPosition(): Position&lt;/div&gt;&lt;div&gt;+ getDestination(): Position&lt;/div&gt;&lt;div&gt;+ setDestination(position: Position): void&lt;/div&gt;&lt;div&gt;- getDecelDistance(): float&lt;/div&gt;&lt;div&gt;&lt;span style=&quot;background-color: transparent; color: light-dark(rgb(0, 0, 0), rgb(255, 255, 255));&quot;&gt;- setDecelDistance(): void&lt;/span&gt;&lt;/div&gt;&lt;div&gt;&lt;span style=&quot;background-color: transparent;&quot;&gt;+ getDistanceFromDestination(): float&lt;/span&gt;&lt;/div&gt;&lt;div&gt;&lt;span style=&quot;background-color: transparent;&quot;&gt;+ getReleasedAgentAmount(): float&lt;/span&gt;&lt;/div&gt;&lt;div&gt;&lt;span style=&quot;background-color: transparent;&quot;&gt;+ setReleasedAgentAmount(releasedAgentAmount: float): void&lt;/span&gt;&lt;/div&gt;&lt;div&gt;&lt;span style=&quot;background-color: transparent;&quot;&gt;+ getId(): int&lt;/span&gt;&lt;/div&gt;&lt;div&gt;&lt;span style=&quot;background-color: transparent;&quot;&gt;+ getZoneToService(): Zone&lt;/span&gt;&lt;/div&gt;&lt;div&gt;&lt;span style=&quot;background-color: transparent;&quot;&gt;+ setZoneToService(zone: Zone): void&lt;/span&gt;&lt;/div&gt;&lt;div&gt;&lt;span style=&quot;background-color: transparent;&quot;&gt;+ getAgentTankAmount(): float&lt;/span&gt;&lt;/div&gt;&lt;div&gt;&lt;span style=&quot;background-color: transparent;&quot;&gt;+ setCurrTask(task: DroneTask): void&lt;/span&gt;&lt;/div&gt;&lt;div&gt;&lt;span style=&quot;background-color: transparent;&quot;&gt;&lt;u&gt;+ setTopSpeed(topSpeed: float): void&lt;/u&gt;&lt;/span&gt;&lt;/div&gt;&lt;div&gt;&lt;span style=&quot;background-color: transparent;&quot;&gt;+ equals(obj: Object): boolean&lt;/span&gt;&lt;/div&gt;&lt;div&gt;&lt;span style=&quot;background-color: transparent;&quot;&gt;+ handleExternalEvent(): void&lt;/span&gt;&lt;/div&gt;&lt;div&gt;&lt;span style=&quot;background-color: transparent;&quot;&gt;+ handleFault(): void&lt;/span&gt;&lt;/div&gt;&lt;div&gt;&lt;span style=&quot;background-color: transparent;&quot;&gt;+ toString(): String&lt;/span&gt;&lt;/div&gt;&lt;div&gt;&lt;span style=&quot;background-color: transparent;&quot;&gt;+ sendDroneInfo(): void&lt;/span&gt;&lt;/div&gt;&lt;div&gt;+ eventReqServiceZone(): void&lt;/div&gt;&lt;div&gt;+ eventReachMaxHeight(): void&lt;/div&gt;&lt;div&gt;+ eventReachTopSpeed(): void&lt;/div&gt;&lt;div&gt;+ eventReachDecelRange(): void&lt;/div&gt;&lt;div&gt;+ eventReachDestination(): void&lt;/div&gt;&lt;div&gt;+ eventReqRelAgent(): void&lt;/div&gt;&lt;div&gt;+ eventFireExtinguished(): void&lt;/div&gt;&lt;div&gt;+ eventReqRecall(): void&lt;/div&gt;&lt;div&gt;+ eventLanded(): void&lt;/div&gt;&lt;div&gt;+ releaseAgent(): void&lt;/div&gt;&lt;div&gt;+ stopAgent(): void&lt;/div&gt;&lt;div&gt;+ takeoff(): void&lt;/div&gt;&lt;div&gt;+ accelerate(): void&lt;/div&gt;&lt;div&gt;+ fly(): void&lt;/div&gt;&lt;div&gt;+ decelerate(): void&lt;/div&gt;&lt;div&gt;+ land(): void&lt;/div&gt;&lt;div&gt;+ updatePosition(distance: float): void&lt;/div&gt;&lt;div&gt;+ setFault(fault: FaultID): void&lt;/div&gt;&lt;div&gt;+ getFault(): FaultID&lt;/div&gt;&lt;div&gt;+ getStateColor(): Color&lt;/div&gt;&lt;/div&gt;&lt;/div&gt;&lt;div&gt;+ requestTask(): void&lt;/div&gt;" style="text;strokeColor=none;fillColor=none;align=left;verticalAlign=top;spacingLeft=4;spacingRight=4;overflow=hidden;rotatable=0;points=[[0,0.5],[1,0.5]];portConstraint=eastwest;whiteSpace=wrap;html=1;" parent="gpong3w6HoHgrcKHU_dl-1" vertex="1">
          <mxGeometry y="478" width="330" height="752" as="geometry" />
        </mxCell>
        <mxCell id="gpong3w6HoHgrcKHU_dl-5" value="AgentTank" style="swimlane;fontStyle=1;align=center;verticalAlign=top;childLayout=stackLayout;horizontal=1;startSize=26;horizontalStack=0;resizeParent=1;resizeParentMax=0;resizeLast=0;collapsible=1;marginBottom=0;whiteSpace=wrap;html=1;" parent="1" vertex="1">
          <mxGeometry x="-2530" y="-700" width="220" height="260" as="geometry" />
        </mxCell>
        <mxCell id="gpong3w6HoHgrcKHU_dl-6" value="&lt;div&gt;+ &lt;u&gt;CAPACITY&lt;span style=&quot;color: light-dark(rgb(0, 0, 0), rgb(255, 255, 255)); background-color: transparent;&quot;&gt;: float&lt;/span&gt;&lt;span style=&quot;color: light-dark(rgb(0, 0, 0), rgb(255, 255, 255)); background-color: transparent;&quot;&gt;&amp;nbsp;= 11.0&lt;/span&gt;&lt;/u&gt;&lt;br&gt;&lt;/div&gt;+&amp;nbsp;&lt;u&gt;AGENT_DROP_RATE:&lt;span style=&quot;color: light-dark(rgb(0, 0, 0), rgb(255, 255, 255)); background-color: transparent;&quot;&gt;&amp;nbsp;float&lt;/span&gt;&lt;span style=&quot;color: light-dark(rgb(0, 0, 0), rgb(255, 255, 255)); background-color: transparent;&quot;&gt;&amp;nbsp;= 2.0&lt;/span&gt;&lt;/u&gt;&lt;div&gt;+&amp;nbsp;&lt;u&gt;NOZZLE_TIME&lt;/u&gt;&lt;u style=&quot;color: light-dark(rgb(0, 0, 0), rgb(255, 255, 255)); background-color: transparent;&quot;&gt;: long&amp;nbsp;&lt;/u&gt;&lt;u style=&quot;color: light-dark(rgb(0, 0, 0), rgb(255, 255, 255)); background-color: transparent;&quot;&gt;= 2000&lt;/u&gt;&lt;u style=&quot;color: light-dark(rgb(0, 0, 0), rgb(255, 255, 255)); background-color: transparent;&quot;&gt;&lt;br&gt;&lt;/u&gt;&lt;/div&gt;&lt;div&gt;- currAgentAmount: float&lt;/div&gt;&lt;div&gt;- isNozzleOpen: boolean&lt;/div&gt;" style="text;strokeColor=none;fillColor=none;align=left;verticalAlign=top;spacingLeft=4;spacingRight=4;overflow=hidden;rotatable=0;points=[[0,0.5],[1,0.5]];portConstraint=eastwest;whiteSpace=wrap;html=1;" parent="gpong3w6HoHgrcKHU_dl-5" vertex="1">
          <mxGeometry y="26" width="220" height="84" as="geometry" />
        </mxCell>
        <mxCell id="gpong3w6HoHgrcKHU_dl-7" value="" style="line;strokeWidth=1;fillColor=none;align=left;verticalAlign=middle;spacingTop=-1;spacingLeft=3;spacingRight=3;rotatable=0;labelPosition=right;points=[];portConstraint=eastwest;strokeColor=inherit;" parent="gpong3w6HoHgrcKHU_dl-5" vertex="1">
          <mxGeometry y="110" width="220" height="8" as="geometry" />
        </mxCell>
        <mxCell id="gpong3w6HoHgrcKHU_dl-8" value="+ AgentTank()&lt;div&gt;&lt;u&gt;+ setCapacity(capacity: float): void&lt;/u&gt;&lt;br&gt;&lt;div&gt;+ openNozzle(): void&lt;/div&gt;&lt;div&gt;+ closeNozzle(): void&lt;/div&gt;&lt;div&gt;+ isNozzleOpen(): boolean&lt;/div&gt;&lt;div&gt;+ refill(): void&lt;/div&gt;&lt;div&gt;+ isEmpty(): boolean&lt;/div&gt;&lt;div&gt;+ getCurrAgentAmount(): float&lt;/div&gt;&lt;div&gt;+ decreaseAgent(amount: float): void&lt;/div&gt;&lt;/div&gt;" style="text;strokeColor=none;fillColor=none;align=left;verticalAlign=top;spacingLeft=4;spacingRight=4;overflow=hidden;rotatable=0;points=[[0,0.5],[1,0.5]];portConstraint=eastwest;whiteSpace=wrap;html=1;" parent="gpong3w6HoHgrcKHU_dl-5" vertex="1">
          <mxGeometry y="118" width="220" height="142" as="geometry" />
        </mxCell>
        <mxCell id="gpong3w6HoHgrcKHU_dl-9" value="" style="endArrow=diamondThin;endFill=1;endSize=24;html=1;rounded=0;exitX=1;exitY=0.25;exitDx=0;exitDy=0;entryX=0.011;entryY=0.924;entryDx=0;entryDy=0;entryPerimeter=0;" parent="1" source="gpong3w6HoHgrcKHU_dl-5" target="gpong3w6HoHgrcKHU_dl-2" edge="1">
          <mxGeometry width="160" relative="1" as="geometry">
            <mxPoint x="-1287" y="-556" as="sourcePoint" />
            <mxPoint x="-2254" y="-626" as="targetPoint" />
          </mxGeometry>
        </mxCell>
        <mxCell id="gpong3w6HoHgrcKHU_dl-10" value="DroneInfo" style="swimlane;fontStyle=1;align=center;verticalAlign=top;childLayout=stackLayout;horizontal=1;startSize=26;horizontalStack=0;resizeParent=1;resizeParentMax=0;resizeLast=0;collapsible=1;marginBottom=0;whiteSpace=wrap;html=1;" parent="1" vertex="1">
          <mxGeometry x="-2850" y="-410" width="550" height="330" as="geometry" />
        </mxCell>
        <mxCell id="gpong3w6HoHgrcKHU_dl-11" value="- droneID: int&lt;div&gt;- position: Position&lt;/div&gt;&lt;div&gt;-&amp;nbsp;agentTankAmount: float&lt;/div&gt;&lt;div&gt;- stateID: DroneStateID&lt;/div&gt;&lt;div&gt;- fault: FaultID&lt;/div&gt;" style="text;strokeColor=none;fillColor=none;align=left;verticalAlign=top;spacingLeft=4;spacingRight=4;overflow=hidden;rotatable=0;points=[[0,0.5],[1,0.5]];portConstraint=eastwest;whiteSpace=wrap;html=1;" parent="gpong3w6HoHgrcKHU_dl-10" vertex="1">
          <mxGeometry y="26" width="550" height="84" as="geometry" />
        </mxCell>
        <mxCell id="gpong3w6HoHgrcKHU_dl-12" value="" style="line;strokeWidth=1;fillColor=none;align=left;verticalAlign=middle;spacingTop=-1;spacingLeft=3;spacingRight=3;rotatable=0;labelPosition=right;points=[];portConstraint=eastwest;strokeColor=inherit;" parent="gpong3w6HoHgrcKHU_dl-10" vertex="1">
          <mxGeometry y="110" width="550" height="8" as="geometry" />
        </mxCell>
        <mxCell id="gpong3w6HoHgrcKHU_dl-13" value="+ DroneInfo(droneID: int, stateID: DroneStateID, position: Position, agentTankAmount: float)&lt;div&gt;+ DroneInfo(droneID: int, fault: FaultID)&lt;br&gt;&lt;div&gt;&lt;div&gt;+ getStateID():&amp;nbsp;&lt;span style=&quot;background-color: transparent; color: light-dark(rgb(0, 0, 0), rgb(255, 255, 255));&quot;&gt;DroneStateID&lt;/span&gt;&lt;/div&gt;&lt;/div&gt;&lt;div&gt;&lt;span style=&quot;background-color: transparent; color: light-dark(rgb(0, 0, 0), rgb(255, 255, 255));&quot;&gt;+&amp;nbsp;&lt;/span&gt;&lt;span style=&quot;background-color: transparent;&quot;&gt;getDroneID(): int&lt;/span&gt;&lt;/div&gt;&lt;div&gt;+&amp;nbsp;getPosition(): Position&lt;/div&gt;&lt;div&gt;+&amp;nbsp;getAgentTankAmount(): float&lt;/div&gt;&lt;div&gt;+&amp;nbsp;toString(): String&lt;/div&gt;&lt;/div&gt;&lt;div&gt;+ getReleasedAgentAmount(): float&lt;/div&gt;&lt;div&gt;+ getFault(): FaultID&lt;/div&gt;&lt;div&gt;+ getZoneToService(): Zone&lt;/div&gt;&lt;div&gt;&lt;u&gt;+ droneInfoLookup(droneId: int, infoList: ArrayList&amp;lt;DroneInfo&amp;gt;&lt;/u&gt;&lt;/div&gt;&lt;div&gt;+ equals(obj: Object): boolean&lt;/div&gt;" style="text;strokeColor=none;fillColor=none;align=left;verticalAlign=top;spacingLeft=4;spacingRight=4;overflow=hidden;rotatable=0;points=[[0,0.5],[1,0.5]];portConstraint=eastwest;whiteSpace=wrap;html=1;" parent="gpong3w6HoHgrcKHU_dl-10" vertex="1">
          <mxGeometry y="118" width="550" height="212" as="geometry" />
        </mxCell>
        <mxCell id="ytz2XxUED-rhMCgSk-kE-1" value="" style="endArrow=diamondThin;endFill=1;endSize=24;html=1;rounded=0;exitX=0.894;exitY=0.993;exitDx=0;exitDy=0;exitPerimeter=0;entryX=0.159;entryY=0.993;entryDx=0;entryDy=0;entryPerimeter=0;" parent="1" source="gpong3w6HoHgrcKHU_dl-13" target="gpong3w6HoHgrcKHU_dl-4" edge="1">
          <mxGeometry width="160" relative="1" as="geometry">
            <mxPoint x="-2370" y="-160" as="sourcePoint" />
            <mxPoint x="-2170" y="50" as="targetPoint" />
            <Array as="points">
              <mxPoint x="-2368" y="92" />
              <mxPoint x="-2220" y="92" />
              <mxPoint x="-2139" y="90" />
            </Array>
          </mxGeometry>
        </mxCell>
        <mxCell id="ytz2XxUED-rhMCgSk-kE-2" value="&lt;p style=&quot;margin:0px;margin-top:4px;text-align:center;&quot;&gt;&lt;i&gt;&amp;lt;&amp;lt;Interface&amp;gt;&amp;gt;&lt;/i&gt;&lt;br&gt;&lt;b&gt;DroneState&lt;/b&gt;&lt;/p&gt;&lt;hr size=&quot;1&quot; style=&quot;border-style:solid;&quot;&gt;&lt;p style=&quot;margin:0px;margin-left:4px;&quot;&gt;+ reqServiceZone(context: Drone): void&lt;br&gt;+ reqRelAgent(context: Drone): void&amp;nbsp;&lt;/p&gt;&lt;p style=&quot;margin:0px;margin-left:4px;&quot;&gt;+&amp;nbsp;reqRecall(context: Drone): void&lt;/p&gt;&lt;p style=&quot;margin:0px;margin-left:4px;&quot;&gt;+&amp;nbsp;emptyTank(context: Drone): void&lt;/p&gt;&lt;p style=&quot;margin:0px;margin-left:4px;&quot;&gt;+&amp;nbsp;fireExtinguished(context: Drone): void&lt;/p&gt;&lt;p style=&quot;margin:0px;margin-left:4px;&quot;&gt;+&amp;nbsp;reachDecelRange(context: Drone): void&lt;/p&gt;&lt;p style=&quot;margin:0px;margin-left:4px;&quot;&gt;+&amp;nbsp;reachDestination(context: Drone): void&lt;/p&gt;&lt;p style=&quot;margin:0px;margin-left:4px;&quot;&gt;+&amp;nbsp;reachMaxHeight(context: Drone): void&lt;/p&gt;&lt;p style=&quot;margin:0px;margin-left:4px;&quot;&gt;+&amp;nbsp;landed(context: Drone): void&lt;/p&gt;&lt;p style=&quot;margin:0px;margin-left:4px;&quot;&gt;+&amp;nbsp;reachTopSpeed(context: Drone): void&lt;/p&gt;&lt;p style=&quot;margin:0px;margin-left:4px;&quot;&gt;+ faultDetected(context: Drone): void&lt;/p&gt;&lt;p style=&quot;margin:0px;margin-left:4px;&quot;&gt;+ emptyTank(context: Drone): void&lt;/p&gt;" style="verticalAlign=top;align=left;overflow=fill;html=1;whiteSpace=wrap;" parent="1" vertex="1">
          <mxGeometry x="-2213.5" y="150" width="240" height="226" as="geometry" />
        </mxCell>
        <mxCell id="ytz2XxUED-rhMCgSk-kE-3" style="edgeStyle=orthogonalEdgeStyle;rounded=0;orthogonalLoop=1;jettySize=auto;html=1;entryX=0.5;entryY=1;entryDx=0;entryDy=0;endSize=10;endArrow=block;endFill=0;dashed=1;exitX=0.5;exitY=0;exitDx=0;exitDy=0;" parent="1" source="ytz2XxUED-rhMCgSk-kE-4" target="ytz2XxUED-rhMCgSk-kE-2" edge="1">
          <mxGeometry relative="1" as="geometry">
            <mxPoint x="-2195.5" y="436" as="sourcePoint" />
            <Array as="points">
              <mxPoint x="-2195.5" y="404" />
              <mxPoint x="-2093.5" y="404" />
            </Array>
          </mxGeometry>
        </mxCell>
        <mxCell id="ytz2XxUED-rhMCgSk-kE-4" value="&lt;p style=&quot;margin:0px;margin-top:4px;text-align:center;&quot;&gt;&lt;b&gt;Accelerating&lt;/b&gt;&lt;/p&gt;" style="verticalAlign=top;align=left;overflow=fill;html=1;whiteSpace=wrap;" parent="1" vertex="1">
          <mxGeometry x="-2240.5" y="436" width="90" height="30" as="geometry" />
        </mxCell>
        <mxCell id="ytz2XxUED-rhMCgSk-kE-5" style="edgeStyle=orthogonalEdgeStyle;rounded=0;orthogonalLoop=1;jettySize=auto;html=1;exitX=0.5;exitY=0;exitDx=0;exitDy=0;entryX=0.5;entryY=1;entryDx=0;entryDy=0;endArrow=block;endFill=0;endSize=10;dashed=1;" parent="1" source="ytz2XxUED-rhMCgSk-kE-6" target="ytz2XxUED-rhMCgSk-kE-2" edge="1">
          <mxGeometry relative="1" as="geometry" />
        </mxCell>
        <mxCell id="ytz2XxUED-rhMCgSk-kE-6" value="&lt;p style=&quot;margin:0px;margin-top:4px;text-align:center;&quot;&gt;&lt;b&gt;Arrived&amp;nbsp;&lt;/b&gt;&lt;/p&gt;" style="verticalAlign=top;align=left;overflow=fill;html=1;whiteSpace=wrap;" parent="1" vertex="1">
          <mxGeometry x="-2043.5" y="436" width="80" height="30" as="geometry" />
        </mxCell>
        <mxCell id="ytz2XxUED-rhMCgSk-kE-7" style="edgeStyle=orthogonalEdgeStyle;rounded=0;orthogonalLoop=1;jettySize=auto;html=1;exitX=0.5;exitY=0;exitDx=0;exitDy=0;entryX=0.5;entryY=1;entryDx=0;entryDy=0;endArrow=block;endFill=0;endSize=10;dashed=1;" parent="1" source="ytz2XxUED-rhMCgSk-kE-8" target="ytz2XxUED-rhMCgSk-kE-2" edge="1">
          <mxGeometry relative="1" as="geometry">
            <mxPoint x="-2073.5" y="396" as="targetPoint" />
          </mxGeometry>
        </mxCell>
        <mxCell id="ytz2XxUED-rhMCgSk-kE-8" value="&lt;p style=&quot;margin:0px;margin-top:4px;text-align:center;&quot;&gt;&lt;b&gt;Base&lt;/b&gt;&lt;/p&gt;" style="verticalAlign=top;align=left;overflow=fill;html=1;whiteSpace=wrap;" parent="1" vertex="1">
          <mxGeometry x="-2333.5" y="436" width="80" height="30" as="geometry" />
        </mxCell>
        <mxCell id="ytz2XxUED-rhMCgSk-kE-9" style="edgeStyle=orthogonalEdgeStyle;rounded=0;orthogonalLoop=1;jettySize=auto;html=1;exitX=0.5;exitY=0;exitDx=0;exitDy=0;entryX=0.5;entryY=1;entryDx=0;entryDy=0;endSize=10;endArrow=block;endFill=0;dashed=1;" parent="1" source="ytz2XxUED-rhMCgSk-kE-10" target="ytz2XxUED-rhMCgSk-kE-2" edge="1">
          <mxGeometry relative="1" as="geometry">
            <Array as="points">
              <mxPoint x="-2093.5" y="426" />
              <mxPoint x="-2093.5" y="426" />
            </Array>
          </mxGeometry>
        </mxCell>
        <mxCell id="ytz2XxUED-rhMCgSk-kE-10" value="&lt;p style=&quot;margin:0px;margin-top:4px;text-align:center;&quot;&gt;&lt;b&gt;Flying&amp;nbsp;&lt;/b&gt;&lt;/p&gt;" style="verticalAlign=top;align=left;overflow=fill;html=1;whiteSpace=wrap;" parent="1" vertex="1">
          <mxGeometry x="-2133.5" y="436" width="80" height="30" as="geometry" />
        </mxCell>
        <mxCell id="ytz2XxUED-rhMCgSk-kE-11" style="edgeStyle=orthogonalEdgeStyle;rounded=0;orthogonalLoop=1;jettySize=auto;html=1;exitX=0.5;exitY=0;exitDx=0;exitDy=0;entryX=0.5;entryY=1;entryDx=0;entryDy=0;endArrow=block;endFill=0;endSize=10;dashed=1;" parent="1" source="ytz2XxUED-rhMCgSk-kE-12" target="ytz2XxUED-rhMCgSk-kE-2" edge="1">
          <mxGeometry relative="1" as="geometry" />
        </mxCell>
        <mxCell id="ytz2XxUED-rhMCgSk-kE-12" value="&lt;p style=&quot;margin:0px;margin-top:4px;text-align:center;&quot;&gt;&lt;b&gt;Decelerating&lt;/b&gt;&lt;/p&gt;" style="verticalAlign=top;align=left;overflow=fill;html=1;whiteSpace=wrap;" parent="1" vertex="1">
          <mxGeometry x="-1953.5" y="436" width="90" height="30" as="geometry" />
        </mxCell>
        <mxCell id="ytz2XxUED-rhMCgSk-kE-13" style="edgeStyle=orthogonalEdgeStyle;rounded=0;orthogonalLoop=1;jettySize=auto;html=1;exitX=0.5;exitY=0;exitDx=0;exitDy=0;entryX=0.5;entryY=1;entryDx=0;entryDy=0;endSize=10;endArrow=block;endFill=0;dashed=1;" parent="1" source="ytz2XxUED-rhMCgSk-kE-14" target="ytz2XxUED-rhMCgSk-kE-2" edge="1">
          <mxGeometry relative="1" as="geometry" />
        </mxCell>
        <mxCell id="ytz2XxUED-rhMCgSk-kE-14" value="&lt;p style=&quot;margin:0px;margin-top:4px;text-align:center;&quot;&gt;&lt;b&gt;Idle&lt;/b&gt;&lt;/p&gt;" style="verticalAlign=top;align=left;overflow=fill;html=1;whiteSpace=wrap;" parent="1" vertex="1">
          <mxGeometry x="-2430" y="436" width="73" height="30" as="geometry" />
        </mxCell>
        <mxCell id="ytz2XxUED-rhMCgSk-kE-15" style="edgeStyle=orthogonalEdgeStyle;rounded=0;orthogonalLoop=1;jettySize=auto;html=1;exitX=0.5;exitY=0;exitDx=0;exitDy=0;entryX=0.5;entryY=1;entryDx=0;entryDy=0;endSize=10;endArrow=block;endFill=0;dashed=1;" parent="1" source="ytz2XxUED-rhMCgSk-kE-16" target="ytz2XxUED-rhMCgSk-kE-2" edge="1">
          <mxGeometry relative="1" as="geometry" />
        </mxCell>
        <mxCell id="ytz2XxUED-rhMCgSk-kE-16" value="&lt;p style=&quot;margin:0px;margin-top:4px;text-align:center;&quot;&gt;&lt;b&gt;Landing&amp;nbsp;&lt;/b&gt;&lt;/p&gt;" style="verticalAlign=top;align=left;overflow=fill;html=1;whiteSpace=wrap;" parent="1" vertex="1">
          <mxGeometry x="-1853.5" y="436" width="110" height="30" as="geometry" />
        </mxCell>
        <mxCell id="ytz2XxUED-rhMCgSk-kE-17" style="edgeStyle=orthogonalEdgeStyle;rounded=0;orthogonalLoop=1;jettySize=auto;html=1;exitX=0.5;exitY=0;exitDx=0;exitDy=0;entryX=0.5;entryY=1;entryDx=0;entryDy=0;endArrow=block;endFill=0;endSize=10;dashed=1;" parent="1" source="ytz2XxUED-rhMCgSk-kE-18" target="ytz2XxUED-rhMCgSk-kE-2" edge="1">
          <mxGeometry relative="1" as="geometry" />
        </mxCell>
        <mxCell id="ytz2XxUED-rhMCgSk-kE-18" value="&lt;p style=&quot;margin:0px;margin-top:4px;text-align:center;&quot;&gt;&lt;b&gt;Releasing_Agent&lt;/b&gt;&lt;/p&gt;" style="verticalAlign=top;align=left;overflow=fill;html=1;whiteSpace=wrap;" parent="1" vertex="1">
          <mxGeometry x="-1733.5" y="436" width="140" height="30" as="geometry" />
        </mxCell>
        <mxCell id="ytz2XxUED-rhMCgSk-kE-19" style="edgeStyle=orthogonalEdgeStyle;rounded=0;orthogonalLoop=1;jettySize=auto;html=1;exitX=0.5;exitY=0;exitDx=0;exitDy=0;entryX=0.5;entryY=1;entryDx=0;entryDy=0;endSize=10;endArrow=block;endFill=0;dashed=1;" parent="1" source="ytz2XxUED-rhMCgSk-kE-20" target="ytz2XxUED-rhMCgSk-kE-2" edge="1">
          <mxGeometry relative="1" as="geometry" />
        </mxCell>
        <mxCell id="ytz2XxUED-rhMCgSk-kE-20" value="&lt;p style=&quot;margin:0px;margin-top:4px;text-align:center;&quot;&gt;&lt;b&gt;Takeoff&lt;/b&gt;&lt;/p&gt;" style="verticalAlign=top;align=left;overflow=fill;html=1;whiteSpace=wrap;" parent="1" vertex="1">
          <mxGeometry x="-1583.5" y="436" width="87" height="30" as="geometry" />
        </mxCell>
        <mxCell id="ytz2XxUED-rhMCgSk-kE-21" value="&amp;lt;&amp;lt;enumeration&amp;gt;&amp;gt;&lt;br&gt;&lt;b&gt;DroneStateID&lt;/b&gt;" style="swimlane;fontStyle=0;align=center;verticalAlign=top;childLayout=stackLayout;horizontal=1;startSize=40;horizontalStack=0;resizeParent=1;resizeParentMax=0;resizeLast=0;collapsible=0;marginBottom=0;html=1;whiteSpace=wrap;" parent="1" vertex="1">
          <mxGeometry x="-1953.5" y="170" width="160" height="210" as="geometry" />
        </mxCell>
        <mxCell id="ytz2XxUED-rhMCgSk-kE-22" value="&lt;span style=&quot;text-wrap-mode: nowrap;&quot;&gt;BASE,&lt;/span&gt;&lt;div style=&quot;text-wrap-mode: nowrap;&quot;&gt;TAKEOFF,&lt;/div&gt;&lt;div style=&quot;text-wrap-mode: nowrap;&quot;&gt;ACCELERATING,&lt;/div&gt;&lt;div style=&quot;text-wrap-mode: nowrap;&quot;&gt;FLYING,&lt;/div&gt;&lt;div style=&quot;text-wrap-mode: nowrap;&quot;&gt;DECELERATING,&lt;/div&gt;&lt;div style=&quot;text-wrap-mode: nowrap;&quot;&gt;LANDING,&lt;/div&gt;&lt;div style=&quot;text-wrap-mode: nowrap;&quot;&gt;ARRIVED,&lt;/div&gt;&lt;div style=&quot;text-wrap-mode: nowrap;&quot;&gt;RELEASING_AGENT,&lt;/div&gt;&lt;div style=&quot;text-wrap-mode: nowrap;&quot;&gt;IDLE,&lt;/div&gt;&lt;div style=&quot;&quot;&gt;&lt;span style=&quot;text-wrap-mode: nowrap; background-color: transparent; color: light-dark(rgb(0, 0, 0), rgb(255, 255, 255));&quot;&gt;EMPTY_TANK,&lt;/span&gt;&lt;/div&gt;&lt;div style=&quot;&quot;&gt;&lt;span style=&quot;text-wrap-mode: nowrap; background-color: transparent; color: light-dark(rgb(0, 0, 0), rgb(255, 255, 255));&quot;&gt;FAULT&lt;/span&gt;&lt;/div&gt;" style="text;html=1;strokeColor=none;fillColor=none;align=left;verticalAlign=middle;spacingLeft=4;spacingRight=4;overflow=hidden;rotatable=0;points=[[0,0.5],[1,0.5]];portConstraint=eastwest;whiteSpace=wrap;" parent="ytz2XxUED-rhMCgSk-kE-21" vertex="1">
          <mxGeometry y="40" width="160" height="170" as="geometry" />
        </mxCell>
        <mxCell id="ytz2XxUED-rhMCgSk-kE-23" value="" style="endArrow=diamondThin;endFill=1;endSize=24;html=1;rounded=0;exitX=0.5;exitY=0;exitDx=0;exitDy=0;entryX=0.405;entryY=0.992;entryDx=0;entryDy=0;entryPerimeter=0;" parent="1" source="ytz2XxUED-rhMCgSk-kE-2" edge="1" target="gpong3w6HoHgrcKHU_dl-4">
          <mxGeometry width="160" relative="1" as="geometry">
            <mxPoint x="-1895.5" y="135" as="sourcePoint" />
            <mxPoint x="-2060" y="60" as="targetPoint" />
            <Array as="points">
              <mxPoint x="-2093" y="105" />
              <mxPoint x="-2052.5" y="105" />
            </Array>
          </mxGeometry>
        </mxCell>
        <mxCell id="ytz2XxUED-rhMCgSk-kE-24" value="" style="endArrow=diamondThin;endFill=1;endSize=24;html=1;rounded=0;exitX=0.5;exitY=0;exitDx=0;exitDy=0;" parent="1" source="ytz2XxUED-rhMCgSk-kE-21" edge="1">
          <mxGeometry width="160" relative="1" as="geometry">
            <mxPoint x="-1655.5" y="125" as="sourcePoint" />
            <mxPoint x="-2000" y="70" as="targetPoint" />
            <Array as="points">
              <mxPoint x="-1870" y="95" />
              <mxPoint x="-2022.5" y="95" />
            </Array>
          </mxGeometry>
        </mxCell>
        <mxCell id="ytz2XxUED-rhMCgSk-kE-35" value="DroneTask" style="swimlane;fontStyle=1;align=center;verticalAlign=top;childLayout=stackLayout;horizontal=1;startSize=26;horizontalStack=0;resizeParent=1;resizeParentMax=0;resizeLast=0;collapsible=1;marginBottom=0;whiteSpace=wrap;html=1;" parent="1" vertex="1">
          <mxGeometry x="-1540" y="-410" width="310" height="236" as="geometry" />
        </mxCell>
        <mxCell id="ytz2XxUED-rhMCgSk-kE-36" value="&lt;div&gt;- droneID:&amp;nbsp;&lt;span style=&quot;background-color: transparent; color: light-dark(rgb(0, 0, 0), rgb(255, 255, 255));&quot;&gt;int&lt;/span&gt;&lt;/div&gt;&lt;div&gt;- taskType:&amp;nbsp;&lt;span style=&quot;background-color: transparent; color: light-dark(rgb(0, 0, 0), rgb(255, 255, 255));&quot;&gt;DroneTaskType&lt;/span&gt;&lt;/div&gt;&lt;div&gt;- zone:&amp;nbsp;&lt;span style=&quot;background-color: transparent; color: light-dark(rgb(0, 0, 0), rgb(255, 255, 255));&quot;&gt;Zone&lt;/span&gt;&lt;/div&gt;&lt;div&gt;&lt;span style=&quot;background-color: transparent; color: light-dark(rgb(0, 0, 0), rgb(255, 255, 255));&quot;&gt;- port: int&lt;/span&gt;&lt;/div&gt;" style="text;strokeColor=none;fillColor=none;align=left;verticalAlign=top;spacingLeft=4;spacingRight=4;overflow=hidden;rotatable=0;points=[[0,0.5],[1,0.5]];portConstraint=eastwest;whiteSpace=wrap;html=1;" parent="ytz2XxUED-rhMCgSk-kE-35" vertex="1">
          <mxGeometry y="26" width="310" height="70" as="geometry" />
        </mxCell>
        <mxCell id="ytz2XxUED-rhMCgSk-kE-37" value="" style="line;strokeWidth=1;fillColor=none;align=left;verticalAlign=middle;spacingTop=-1;spacingLeft=3;spacingRight=3;rotatable=0;labelPosition=right;points=[];portConstraint=eastwest;strokeColor=inherit;" parent="ytz2XxUED-rhMCgSk-kE-35" vertex="1">
          <mxGeometry y="96" width="310" height="8" as="geometry" />
        </mxCell>
        <mxCell id="ytz2XxUED-rhMCgSk-kE-38" value="&lt;div&gt;+ DroneTask(droneID: int, droneTaskType:&amp;nbsp;&lt;span style=&quot;background-color: transparent; color: light-dark(rgb(0, 0, 0), rgb(255, 255, 255));&quot;&gt;DroneTaskType, zone: Zone, port:int&lt;/span&gt;&lt;span style=&quot;background-color: transparent; color: light-dark(rgb(0, 0, 0), rgb(255, 255, 255));&quot;&gt;)&lt;/span&gt;&lt;/div&gt;&lt;div&gt;&lt;span style=&quot;background-color: transparent;&quot;&gt;+DroneTask(droneID: int, droneTaskType:&amp;nbsp;&lt;/span&gt;&lt;span style=&quot;background-color: transparent; color: light-dark(rgb(0, 0, 0), rgb(255, 255, 255));&quot;&gt;DroneTaskType&lt;/span&gt;&lt;span style=&quot;background-color: transparent; color: light-dark(rgb(0, 0, 0), rgb(255, 255, 255));&quot;&gt;, zone:&amp;nbsp;&lt;/span&gt;&lt;span style=&quot;background-color: transparent; color: light-dark(rgb(0, 0, 0), rgb(255, 255, 255));&quot;&gt;Zone&lt;/span&gt;&lt;span style=&quot;background-color: transparent; color: light-dark(rgb(0, 0, 0), rgb(255, 255, 255));&quot;&gt;)&lt;/span&gt;&lt;/div&gt;&lt;div&gt;&lt;span style=&quot;background-color: transparent;&quot;&gt;+ getDroneID(): int&lt;/span&gt;&lt;/div&gt;&lt;div&gt;&lt;span style=&quot;background-color: transparent;&quot;&gt;+ getDroneTaskType():&amp;nbsp;&lt;/span&gt;&lt;span style=&quot;background-color: transparent; color: light-dark(rgb(0, 0, 0), rgb(255, 255, 255));&quot;&gt;DroneTaskType&lt;/span&gt;&lt;/div&gt;&lt;div&gt;&lt;span style=&quot;background-color: transparent;&quot;&gt;+ getZone():&amp;nbsp;&lt;/span&gt;&lt;span style=&quot;background-color: transparent; color: light-dark(rgb(0, 0, 0), rgb(255, 255, 255));&quot;&gt;Zone&lt;/span&gt;&lt;/div&gt;&lt;div&gt;&lt;span style=&quot;background-color: transparent;&quot;&gt;+ getTaskType():&amp;nbsp;&lt;/span&gt;&lt;span style=&quot;background-color: transparent; color: light-dark(rgb(0, 0, 0), rgb(255, 255, 255));&quot;&gt;DroneTaskType&lt;/span&gt;&lt;/div&gt;&lt;div&gt;&lt;br&gt;&lt;/div&gt;" style="text;strokeColor=none;fillColor=none;align=left;verticalAlign=top;spacingLeft=4;spacingRight=4;overflow=hidden;rotatable=0;points=[[0,0.5],[1,0.5]];portConstraint=eastwest;whiteSpace=wrap;html=1;" parent="ytz2XxUED-rhMCgSk-kE-35" vertex="1">
          <mxGeometry y="104" width="310" height="132" as="geometry" />
        </mxCell>
        <mxCell id="ytz2XxUED-rhMCgSk-kE-40" value="&amp;lt;&amp;lt;enumeration&amp;gt;&amp;gt;&lt;br&gt;&lt;b&gt;DroneTaskType&lt;/b&gt;" style="swimlane;fontStyle=0;align=center;verticalAlign=top;childLayout=stackLayout;horizontal=1;startSize=40;horizontalStack=0;resizeParent=1;resizeParentMax=0;resizeLast=0;collapsible=0;marginBottom=0;html=1;whiteSpace=wrap;" parent="1" vertex="1">
          <mxGeometry x="-1390" y="-20" width="160" height="110" as="geometry" />
        </mxCell>
        <mxCell id="ytz2XxUED-rhMCgSk-kE-41" value="&lt;span style=&quot;text-wrap-mode: nowrap;&quot;&gt;SERVICE_ZONE,&lt;/span&gt;&lt;div&gt;&lt;span style=&quot;text-wrap-mode: nowrap;&quot;&gt;RELEASE_AGENT,&lt;/span&gt;&lt;/div&gt;&lt;div&gt;&lt;span style=&quot;text-wrap-mode: nowrap;&quot;&gt;RECALL,&lt;/span&gt;&lt;/div&gt;&lt;div&gt;&lt;span style=&quot;text-wrap-mode: nowrap;&quot;&gt;REQUEST_ALL_INFO&lt;/span&gt;&lt;/div&gt;" style="text;html=1;strokeColor=none;fillColor=none;align=left;verticalAlign=middle;spacingLeft=4;spacingRight=4;overflow=hidden;rotatable=0;points=[[0,0.5],[1,0.5]];portConstraint=eastwest;whiteSpace=wrap;" parent="ytz2XxUED-rhMCgSk-kE-40" vertex="1">
          <mxGeometry y="40" width="160" height="70" as="geometry" />
        </mxCell>
        <mxCell id="ytz2XxUED-rhMCgSk-kE-42" value="" style="endArrow=diamondThin;endFill=1;endSize=24;html=1;rounded=0;entryX=0.736;entryY=0.975;entryDx=0;entryDy=0;entryPerimeter=0;exitX=0.5;exitY=0;exitDx=0;exitDy=0;" parent="1" source="ytz2XxUED-rhMCgSk-kE-40" target="ytz2XxUED-rhMCgSk-kE-38" edge="1">
          <mxGeometry width="160" relative="1" as="geometry">
            <mxPoint x="-1520" y="67" as="sourcePoint" />
            <mxPoint x="-1615" y="-390" as="targetPoint" />
            <Array as="points">
              <mxPoint x="-1310" y="-30" />
            </Array>
          </mxGeometry>
        </mxCell>
        <mxCell id="hKRvuOt0gpuBVD8HD-oV-2" value="MessagePasser" style="swimlane;fontStyle=1;align=center;verticalAlign=top;childLayout=stackLayout;horizontal=1;startSize=26;horizontalStack=0;resizeParent=1;resizeParentMax=0;resizeLast=0;collapsible=1;marginBottom=0;whiteSpace=wrap;html=1;" parent="1" vertex="1">
          <mxGeometry x="-1710" y="-1020" width="330" height="150" as="geometry" />
        </mxCell>
        <mxCell id="hKRvuOt0gpuBVD8HD-oV-3" value="- MESSAGE_MAX_SIZE: int&lt;div&gt;- socket: DatagramSocket&lt;/div&gt;" style="text;strokeColor=none;fillColor=none;align=left;verticalAlign=top;spacingLeft=4;spacingRight=4;overflow=hidden;rotatable=0;points=[[0,0.5],[1,0.5]];portConstraint=eastwest;whiteSpace=wrap;html=1;" parent="hKRvuOt0gpuBVD8HD-oV-2" vertex="1">
          <mxGeometry y="26" width="330" height="34" as="geometry" />
        </mxCell>
        <mxCell id="hKRvuOt0gpuBVD8HD-oV-4" value="" style="line;strokeWidth=1;fillColor=none;align=left;verticalAlign=middle;spacingTop=-1;spacingLeft=3;spacingRight=3;rotatable=0;labelPosition=right;points=[];portConstraint=eastwest;strokeColor=inherit;" parent="hKRvuOt0gpuBVD8HD-oV-2" vertex="1">
          <mxGeometry y="60" width="330" height="8" as="geometry" />
        </mxCell>
        <mxCell id="hKRvuOt0gpuBVD8HD-oV-5" value="+ send(Object, String, int)&lt;div&gt;+ receive(int)&lt;/div&gt;&lt;div&gt;- deserialize(byte[], int) : Object&lt;/div&gt;&lt;div&gt;+ receive(): Object&lt;/div&gt;&lt;div&gt;+ serialize(Object) : byte[]&lt;/div&gt;&lt;div&gt;&lt;br&gt;&lt;/div&gt;" style="text;strokeColor=none;fillColor=none;align=left;verticalAlign=top;spacingLeft=4;spacingRight=4;overflow=hidden;rotatable=0;points=[[0,0.5],[1,0.5]];portConstraint=eastwest;whiteSpace=wrap;html=1;" parent="hKRvuOt0gpuBVD8HD-oV-2" vertex="1">
          <mxGeometry y="68" width="330" height="82" as="geometry" />
        </mxCell>
        <mxCell id="hKRvuOt0gpuBVD8HD-oV-16" style="edgeStyle=orthogonalEdgeStyle;rounded=0;orthogonalLoop=1;jettySize=auto;html=1;endArrow=block;endFill=0;endSize=18;" parent="1" source="hKRvuOt0gpuBVD8HD-oV-6" target="hKRvuOt0gpuBVD8HD-oV-5" edge="1">
          <mxGeometry relative="1" as="geometry">
            <mxPoint x="-1540" y="-860" as="targetPoint" />
          </mxGeometry>
        </mxCell>
        <mxCell id="hKRvuOt0gpuBVD8HD-oV-6" value="DroneController" style="swimlane;fontStyle=1;align=center;verticalAlign=top;childLayout=stackLayout;horizontal=1;startSize=26;horizontalStack=0;resizeParent=1;resizeParentMax=0;resizeLast=0;collapsible=1;marginBottom=0;whiteSpace=wrap;html=1;" parent="1" vertex="1">
          <mxGeometry x="-1760" y="-700" width="330" height="150" as="geometry" />
        </mxCell>
        <mxCell id="hKRvuOt0gpuBVD8HD-oV-7" value="- drone : Drone" style="text;strokeColor=none;fillColor=none;align=left;verticalAlign=top;spacingLeft=4;spacingRight=4;overflow=hidden;rotatable=0;points=[[0,0.5],[1,0.5]];portConstraint=eastwest;whiteSpace=wrap;html=1;" parent="hKRvuOt0gpuBVD8HD-oV-6" vertex="1">
          <mxGeometry y="26" width="330" height="34" as="geometry" />
        </mxCell>
        <mxCell id="hKRvuOt0gpuBVD8HD-oV-8" value="" style="line;strokeWidth=1;fillColor=none;align=left;verticalAlign=middle;spacingTop=-1;spacingLeft=3;spacingRight=3;rotatable=0;labelPosition=right;points=[];portConstraint=eastwest;strokeColor=inherit;" parent="hKRvuOt0gpuBVD8HD-oV-6" vertex="1">
          <mxGeometry y="60" width="330" height="8" as="geometry" />
        </mxCell>
        <mxCell id="hKRvuOt0gpuBVD8HD-oV-9" value="&lt;div&gt;+ DroneController(drone: Drone)&lt;/div&gt;&lt;div&gt;- processTask(task: DroneTask): void&lt;/div&gt;&lt;div&gt;- dispatchTask(task: DroneTask): void&lt;/div&gt;&lt;div&gt;+ run(): void&lt;/div&gt;" style="text;strokeColor=none;fillColor=none;align=left;verticalAlign=top;spacingLeft=4;spacingRight=4;overflow=hidden;rotatable=0;points=[[0,0.5],[1,0.5]];portConstraint=eastwest;whiteSpace=wrap;html=1;" parent="hKRvuOt0gpuBVD8HD-oV-6" vertex="1">
          <mxGeometry y="68" width="330" height="82" as="geometry" />
        </mxCell>
        <mxCell id="hKRvuOt0gpuBVD8HD-oV-10" value="" style="endArrow=diamondThin;endFill=1;endSize=24;html=1;rounded=0;exitX=1.005;exitY=-0.004;exitDx=0;exitDy=0;exitPerimeter=0;entryX=0;entryY=0.357;entryDx=0;entryDy=0;entryPerimeter=0;" parent="1" source="gpong3w6HoHgrcKHU_dl-4" target="hKRvuOt0gpuBVD8HD-oV-9" edge="1">
          <mxGeometry width="160" relative="1" as="geometry">
            <mxPoint x="-1698" y="-337" as="sourcePoint" />
            <mxPoint x="-1790" y="-601" as="targetPoint" />
            <Array as="points" />
          </mxGeometry>
        </mxCell>
        <mxCell id="S7G4B1Dh9BvhqzVm1fSv-2" value="&lt;p style=&quot;margin:0px;margin-top:4px;text-align:center;&quot;&gt;&lt;b&gt;Fault&lt;/b&gt;&lt;/p&gt;" style="verticalAlign=top;align=left;overflow=fill;html=1;whiteSpace=wrap;" parent="1" vertex="1">
          <mxGeometry x="-1477" y="436" width="87" height="30" as="geometry" />
        </mxCell>
        <mxCell id="S7G4B1Dh9BvhqzVm1fSv-3" style="edgeStyle=orthogonalEdgeStyle;rounded=0;orthogonalLoop=1;jettySize=auto;html=1;exitX=0.5;exitY=0;exitDx=0;exitDy=0;endSize=10;endArrow=block;endFill=0;dashed=1;entryX=0.5;entryY=1;entryDx=0;entryDy=0;" parent="1" source="S7G4B1Dh9BvhqzVm1fSv-2" target="ytz2XxUED-rhMCgSk-kE-2" edge="1">
          <mxGeometry relative="1" as="geometry">
            <mxPoint x="-1530" y="446" as="sourcePoint" />
            <mxPoint x="-2090" y="380" as="targetPoint" />
          </mxGeometry>
        </mxCell>
        <mxCell id="S7G4B1Dh9BvhqzVm1fSv-4" value="&amp;lt;&amp;lt;enumeration&amp;gt;&amp;gt;&lt;br&gt;&lt;b&gt;FaultID&lt;/b&gt;" style="swimlane;fontStyle=0;align=center;verticalAlign=top;childLayout=stackLayout;horizontal=1;startSize=40;horizontalStack=0;resizeParent=1;resizeParentMax=0;resizeLast=0;collapsible=0;marginBottom=0;html=1;whiteSpace=wrap;" parent="1" vertex="1">
          <mxGeometry x="-740" y="-675" width="160" height="110" as="geometry" />
        </mxCell>
        <mxCell id="S7G4B1Dh9BvhqzVm1fSv-5" value="&lt;span style=&quot;text-wrap-mode: nowrap;&quot;&gt;DRONE_STUCK&lt;/span&gt;&lt;div&gt;&lt;span style=&quot;text-wrap-mode: nowrap;&quot;&gt;NOZZLE_JAMMED&lt;/span&gt;&lt;/div&gt;&lt;div&gt;&lt;span style=&quot;text-wrap-mode: nowrap;&quot;&gt;CORRUPTED_MESSAGE&lt;/span&gt;&lt;/div&gt;" style="text;html=1;strokeColor=none;fillColor=none;align=left;verticalAlign=middle;spacingLeft=4;spacingRight=4;overflow=hidden;rotatable=0;points=[[0,0.5],[1,0.5]];portConstraint=eastwest;whiteSpace=wrap;" parent="S7G4B1Dh9BvhqzVm1fSv-4" vertex="1">
          <mxGeometry y="40" width="160" height="70" as="geometry" />
        </mxCell>
        <mxCell id="S7G4B1Dh9BvhqzVm1fSv-6" value="DroneFault" style="swimlane;fontStyle=1;align=center;verticalAlign=top;childLayout=stackLayout;horizontal=1;startSize=26;horizontalStack=0;resizeParent=1;resizeParentMax=0;resizeLast=0;collapsible=1;marginBottom=0;whiteSpace=wrap;html=1;" parent="1" vertex="1">
          <mxGeometry x="-1310" y="-740" width="460" height="240" as="geometry" />
        </mxCell>
        <mxCell id="S7G4B1Dh9BvhqzVm1fSv-7" value="&lt;div&gt;- droneID:&amp;nbsp;&lt;span style=&quot;background-color: transparent; color: light-dark(rgb(0, 0, 0), rgb(255, 255, 255));&quot;&gt;int&lt;/span&gt;&lt;/div&gt;&lt;div&gt;- faultCode:int&lt;/div&gt;&lt;div&gt;- faultTime:long&lt;/div&gt;&lt;div&gt;- faultType: faultID&lt;/div&gt;" style="text;strokeColor=none;fillColor=none;align=left;verticalAlign=top;spacingLeft=4;spacingRight=4;overflow=hidden;rotatable=0;points=[[0,0.5],[1,0.5]];portConstraint=eastwest;whiteSpace=wrap;html=1;" parent="S7G4B1Dh9BvhqzVm1fSv-6" vertex="1">
          <mxGeometry y="26" width="460" height="74" as="geometry" />
        </mxCell>
        <mxCell id="S7G4B1Dh9BvhqzVm1fSv-8" value="" style="line;strokeWidth=1;fillColor=none;align=left;verticalAlign=middle;spacingTop=-1;spacingLeft=3;spacingRight=3;rotatable=0;labelPosition=right;points=[];portConstraint=eastwest;strokeColor=inherit;" parent="S7G4B1Dh9BvhqzVm1fSv-6" vertex="1">
          <mxGeometry y="100" width="460" height="8" as="geometry" />
        </mxCell>
        <mxCell id="S7G4B1Dh9BvhqzVm1fSv-9" value="&lt;div&gt;+ DroneFault(droneId:int, faultCode:int, faultTime:long, faultID: faultType)&lt;/div&gt;&lt;div&gt;+ getDroneId(): int&lt;/div&gt;&lt;div&gt;+ getFaultCode() :int&lt;/div&gt;&lt;div&gt;+ getFaultTime() : long&lt;/div&gt;&lt;div&gt;+ getFaultType(): FaultID&lt;/div&gt;&lt;div&gt;+ toString(): String&lt;/div&gt;" style="text;strokeColor=none;fillColor=none;align=left;verticalAlign=top;spacingLeft=4;spacingRight=4;overflow=hidden;rotatable=0;points=[[0,0.5],[1,0.5]];portConstraint=eastwest;whiteSpace=wrap;html=1;" parent="S7G4B1Dh9BvhqzVm1fSv-6" vertex="1">
          <mxGeometry y="108" width="460" height="132" as="geometry" />
        </mxCell>
        <mxCell id="S7G4B1Dh9BvhqzVm1fSv-10" value="" style="endArrow=diamondThin;endFill=1;endSize=24;html=1;rounded=0;entryX=0.993;entryY=0.247;entryDx=0;entryDy=0;entryPerimeter=0;exitX=0;exitY=0.5;exitDx=0;exitDy=0;" parent="1" source="S7G4B1Dh9BvhqzVm1fSv-5" target="S7G4B1Dh9BvhqzVm1fSv-9" edge="1">
          <mxGeometry width="160" relative="1" as="geometry">
            <mxPoint x="-718" y="-317" as="sourcePoint" />
            <mxPoint x="-720" y="-490" as="targetPoint" />
            <Array as="points" />
          </mxGeometry>
        </mxCell>
        <mxCell id="S7G4B1Dh9BvhqzVm1fSv-11" value="DroneSubsystem(implements Runnable)" style="swimlane;fontStyle=1;align=center;verticalAlign=top;childLayout=stackLayout;horizontal=1;startSize=26;horizontalStack=0;resizeParent=1;resizeParentMax=0;resizeLast=0;collapsible=1;marginBottom=0;whiteSpace=wrap;html=1;" parent="1" vertex="1">
          <mxGeometry x="-1270" y="-1060" width="310" height="190" as="geometry" />
        </mxCell>
        <mxCell id="S7G4B1Dh9BvhqzVm1fSv-12" value="&lt;u&gt;- NUMBER_OF_DRONES: int&lt;/u&gt;&lt;div&gt;- droneFaults: ArrayList&amp;lt;DroneFault&amp;gt;&lt;/div&gt;&lt;div&gt;- drones: HashMap &amp;lt;Integer, Drone&amp;gt;&lt;/div&gt;" style="text;strokeColor=none;fillColor=none;align=left;verticalAlign=top;spacingLeft=4;spacingRight=4;overflow=hidden;rotatable=0;points=[[0,0.5],[1,0.5]];portConstraint=eastwest;whiteSpace=wrap;html=1;" parent="S7G4B1Dh9BvhqzVm1fSv-11" vertex="1">
          <mxGeometry y="26" width="310" height="54" as="geometry" />
        </mxCell>
        <mxCell id="S7G4B1Dh9BvhqzVm1fSv-13" value="" style="line;strokeWidth=1;fillColor=none;align=left;verticalAlign=middle;spacingTop=-1;spacingLeft=3;spacingRight=3;rotatable=0;labelPosition=right;points=[];portConstraint=eastwest;strokeColor=inherit;" parent="S7G4B1Dh9BvhqzVm1fSv-11" vertex="1">
          <mxGeometry y="80" width="310" height="8" as="geometry" />
        </mxCell>
        <mxCell id="S7G4B1Dh9BvhqzVm1fSv-14" value="&lt;div&gt;&lt;u&gt;+ readFaultsFile(filePath: String): void&lt;/u&gt;&lt;/div&gt;&lt;div&gt;&lt;u&gt;+ getNumberOfDrones(): int&lt;/u&gt;&lt;/div&gt;&lt;div&gt;&lt;u&gt;+ setNumberOfDrones(numberOfDrones: int): void&lt;/u&gt;&lt;/div&gt;&lt;div&gt;- sortDroneFaults(droneFaults: ArrayList &amp;lt;DroneFault&amp;gt;)&lt;/div&gt;&lt;div&gt;+ getDroneFaults() : ArrayList &amp;lt;DroneFault&amp;gt;&lt;/div&gt;&lt;div&gt;+ setDroneFaults(ArrayList&amp;lt;DroneFault&amp;gt;)&lt;/div&gt;" style="text;strokeColor=none;fillColor=none;align=left;verticalAlign=top;spacingLeft=4;spacingRight=4;overflow=hidden;rotatable=0;points=[[0,0.5],[1,0.5]];portConstraint=eastwest;whiteSpace=wrap;html=1;" parent="S7G4B1Dh9BvhqzVm1fSv-11" vertex="1">
          <mxGeometry y="88" width="310" height="102" as="geometry" />
        </mxCell>
        <mxCell id="S7G4B1Dh9BvhqzVm1fSv-15" value="" style="endArrow=diamondThin;endFill=1;endSize=24;html=1;rounded=0;exitX=0.5;exitY=0;exitDx=0;exitDy=0;entryX=0.5;entryY=0;entryDx=0;entryDy=0;" parent="1" source="S7G4B1Dh9BvhqzVm1fSv-11" target="gpong3w6HoHgrcKHU_dl-1" edge="1">
          <mxGeometry width="160" relative="1" as="geometry">
            <mxPoint x="-2010" y="-1190" as="sourcePoint" />
            <mxPoint x="-1902" y="-1189" as="targetPoint" />
            <Array as="points">
              <mxPoint x="-1110" y="-1200" />
              <mxPoint x="-2030" y="-1200" />
            </Array>
          </mxGeometry>
        </mxCell>
        <mxCell id="R8hr2YBBwjIysMlgnDaz-1" value="&lt;p style=&quot;margin:0px;margin-top:4px;text-align:center;&quot;&gt;&lt;b&gt;Empty_Tank&lt;/b&gt;&lt;/p&gt;" style="verticalAlign=top;align=left;overflow=fill;html=1;whiteSpace=wrap;" vertex="1" parent="1">
          <mxGeometry x="-1380" y="436" width="87" height="30" as="geometry" />
        </mxCell>
        <mxCell id="R8hr2YBBwjIysMlgnDaz-2" value="" style="endArrow=none;dashed=1;html=1;dashPattern=1 3;strokeWidth=2;rounded=0;exitX=0.5;exitY=0;exitDx=0;exitDy=0;edgeStyle=orthogonalEdgeStyle;entryX=0.5;entryY=1;entryDx=0;entryDy=0;" edge="1" parent="1" source="R8hr2YBBwjIysMlgnDaz-1" target="ytz2XxUED-rhMCgSk-kE-2">
          <mxGeometry width="50" height="50" relative="1" as="geometry">
            <mxPoint x="-1470" y="390" as="sourcePoint" />
            <mxPoint x="-1530" y="350" as="targetPoint" />
          </mxGeometry>
        </mxCell>
        <mxCell id="ytz2XxUED-rhMCgSk-kE-34" value="" style="endArrow=block;endFill=0;endSize=24;html=1;rounded=0;exitX=1;exitY=0.5;exitDx=0;exitDy=0;entryX=0;entryY=0.5;entryDx=0;entryDy=0;edgeStyle=orthogonalEdgeStyle;" parent="1" source="gpong3w6HoHgrcKHU_dl-2" edge="1" target="hKRvuOt0gpuBVD8HD-oV-3">
          <mxGeometry width="160" relative="1" as="geometry">
            <mxPoint x="-1930" y="-1496" as="sourcePoint" />
            <mxPoint x="-1760" y="-1070" as="targetPoint" />
          </mxGeometry>
        </mxCell>
      </root>
    </mxGraphModel>
  </diagram>
</mxfile>
